# xmcd
#
# Track frame offsets: 
#        150
#        9702
#        23302
#        34020
#        44942
#        53635
#        66445
#        76015
#        86362
#        96082
#        107387
#        119427
#        128222
#        136700
#        148017
#        160400
#
# Disc length: 2279 seconds
#
# Revision: 2
# Processed by: cddbd v1.5.2PL0 Copyright (c) Steve Scherf et al.
# Submitted via: ExactAudioCopy v0.99pb3
#
DISCID=ca08e510
DTITLE=Various Artist - Pop Anthology - 1963
DYEAR=1900
DGENRE=Pop
TTITLE0=Swinging Blue Jeans/Hippy Hippy Shake
TTITLE1=Trini Lopez/If I Had  A Hammer
TTITLE2=The Crystals/Da Doo Ron Ron
TTITLE3=Brian Poole and The Tremeloes/Do You Love Me 
TTITLE4=Gerry and The Pacemakers/How Do you Do It?
TTITLE5=Del Shannon/Little Town Flirt
TTITLE6=Billy J. Kramer and The Dakotas/Do You Wanna Know A Secret?
TTITLE7=Leslie Gore/It's My Party
TTITLE8=Freddy and The Dreamers/I'm Telling You Now
TTITLE9=Paul and Paula/Hey Paula
TTITLE10=Ricky Nelson/Fools Rush In
TTITLE11=The Fourmoust/Hello Little Girl
TTITLE12=The Chiffons/He's So Fine
TTITLE13=Jean and Dean/Surf City
TTITLE14=Nino Tempo and April Stevens/Deep Purple
TTITLE15=The Tymes/So Much In Love
EXTD=
EXTT0=
EXTT1=
EXTT2=
EXTT3=
EXTT4=
EXTT5=
EXTT6=
EXTT7=
EXTT8=
EXTT9=
EXTT10=
EXTT11=
EXTT12=
EXTT13=
EXTT14=
EXTT15=
PLAYORDER=
